<svg width="66" height="53" viewBox="0 0 66 53" fill="none" xmlns="http://www.w3.org/2000/svg">
    <path d="M24 18L24.1071 17.8571C25.4561 16.0585 27.5732 15 29.8214 15L30 15C32.3607 15 34.5836 16.1115 36 18V18" stroke="#2C2727"/>
    <path d="M34.9937 25L34.8912 25.1463C33.6014 26.9877 31.5198 28.1145 29.2727 28.1875L29.0943 28.1933C26.7348 28.2699 24.477 27.2313 23 25.3897V25.3897" stroke="#2C2727"/>
    <path d="M33.9311 29.363L34.8622 28.6815L41.4877 37.7335L40.5566 38.415L33.9311 29.363Z" fill="black"/>
    <rect x="34.5289" y="32.1334" width="3.46154" height="8.629" rx="1" transform="rotate(-36.2017 34.5289 32.1334)" fill="black"/>
    <path d="M11.15 52.9C8.28334 52.9 5.9 51.7333 4 49.4C2.1 47.1 0.933336 43.7833 0.500003 39.45C0.500003 39.35 0.500003 39.1167 0.500003 38.75C0.466669 38.3833 0.533336 38.0667 0.700003 37.8C0.833336 37.5667 1.06667 37.4167 1.4 37.35C1.56667 37.3833 1.73334 37.6 1.9 38C2.03334 38.4 2.2 39.0833 2.4 40.05C2.83334 41.95 3.31667 43.6 3.85 45C4.38334 46.4 5.2 47.65 6.3 48.75C7.4 49.85 8.81667 50.4 10.55 50.4C11.95 50.4 12.9167 50.0167 13.45 49.25C14.0167 48.4833 14.3333 47.2667 14.4 45.6L14.45 43.5C14.45 39.1 14.05 34.5667 13.25 29.9C12.4833 25.2 11.3833 19.7833 9.95 13.65C9.98334 13.5167 10.0167 13.3167 10.05 13.05C10.0833 12.75 10.1833 12.55 10.35 12.45C10.55 12.35 10.8667 12.3 11.3 12.3C12.0333 12.7333 12.8333 14.8833 13.7 18.75C14.6 22.5833 15.35 27.0167 15.95 32.05C16.5833 37.1167 16.9 41.5167 16.9 45.25C16.9 47.95 16.3667 49.9 15.3 51.1C14.2333 52.3 12.85 52.9 11.15 52.9ZM11.45 7.65001C10.7167 7.65001 10.1667 7.36667 9.8 6.80001C9.46667 6.23334 9.3 5.53334 9.3 4.70001C9.3 4.33334 9.31667 4.06667 9.35 3.90001C9.31667 3.36667 9.61667 3.10001 10.25 3.10001C10.7167 3.10001 11.1833 3.21668 11.65 3.45001C12.15 3.65001 12.3 3.80001 12.1 3.90001C12.4333 4.76667 12.6 5.45001 12.6 5.95001C12.6 6.38334 12.5 6.73334 12.3 7.00001C12.1 7.23334 11.8167 7.45001 11.45 7.65001Z" fill="black"/>
    <path d="M28.3598 32.05C26.3931 32.05 24.6098 31.6167 23.0098 30.75C21.4431 29.85 20.2098 28.6167 19.3098 27.05C18.4431 25.45 18.0098 23.6333 18.0098 21.6C18.0098 18.2667 19.2264 15.7833 21.6598 14.15C24.1264 12.5167 27.1431 11.7 30.7098 11.7C32.3431 11.7 33.8598 12.1 35.2598 12.9C36.6931 13.7 37.8431 14.85 38.7098 16.35C39.5764 17.85 40.0098 19.5833 40.0098 21.55C40.0098 23.6833 39.4598 25.55 38.3598 27.15C37.2598 28.7167 35.8098 29.9333 34.0098 30.8C32.2431 31.6333 30.3598 32.05 28.3598 32.05ZM27.8098 29.2C30.9098 29.2 33.2598 28.5 34.8598 27.1C36.4598 25.7 37.2598 23.65 37.2598 20.95C37.2598 19.1167 36.6264 17.5333 35.3598 16.2C34.1264 14.8667 32.3931 14.2 30.1598 14.2C28.6598 14.2 27.1431 14.4833 25.6098 15.05C24.0764 15.6167 22.8098 16.4667 21.8098 17.6C20.8098 18.7333 20.3098 20.1 20.3098 21.7C20.3098 23.0333 20.6431 24.2833 21.3098 25.45C21.9764 26.5833 22.8764 27.5 24.0098 28.2C25.1764 28.8667 26.4431 29.2 27.8098 29.2Z" fill="black"/>
    <path d="M55.9227 32.05C53.256 32.05 51.156 31.5333 49.6227 30.5C48.0893 29.4333 46.956 27.8333 46.2227 25.7C45.4893 23.5333 45.006 20.6333 44.7727 17L43.3227 8.55001C43.1893 7.31667 43.006 6.11667 42.7727 4.95001C42.5393 3.78334 42.4227 2.95001 42.4227 2.45001C42.4227 1.75001 42.6227 1.23334 43.0227 0.900007C43.4227 0.533341 44.1393 0.283342 45.1727 0.150009C45.3727 1.81668 45.506 3.06667 45.5727 3.90001C45.9393 7.13334 46.2393 9.61667 46.4727 11.35C46.7393 13.05 47.0727 14.8333 47.4727 16.7C50.0393 15.5667 52.506 15 54.8727 15C57.006 15 58.906 15.45 60.5727 16.35C62.2393 17.2167 63.5393 18.45 64.4727 20.05C65.406 21.6167 65.8727 23.3833 65.8727 25.35C65.8727 27.65 64.856 29.35 62.8227 30.45C60.8227 31.5167 58.5227 32.05 55.9227 32.05ZM63.0727 25.45C63.106 25.2167 63.1227 24.8833 63.1227 24.45C63.1227 22.0833 62.306 20.3167 60.6727 19.15C59.0727 17.9833 56.7893 17.4 53.8227 17.4C51.9893 17.4 50.556 17.7667 49.5227 18.5C48.5227 19.2 48.0227 20.1667 48.0227 21.4C48.0227 24.2333 48.7893 26.3 50.3227 27.6C51.8893 28.9 54.2727 29.55 57.4727 29.55C59.006 29.55 60.2893 29.2 61.3227 28.5C62.356 27.8 62.9393 26.7833 63.0727 25.45Z" fill="black"/>
    </svg>