<svg width="117" height="117" viewBox="0 0 117 117" fill="none" xmlns="http://www.w3.org/2000/svg">
<path d="M49 50L49.1071 49.8571C50.4561 48.0585 52.5732 47 54.8214 47H55C57.3607 47 59.5836 48.1115 61 50V50" stroke="#2C2727"/>
<path d="M59.9937 57L59.8912 57.1463C58.6014 58.9877 56.5198 60.1145 54.2727 60.1875L54.0943 60.1933C51.7348 60.2699 49.477 59.2313 48 57.3897V57.3897" stroke="#2C2727"/>
<path d="M58.9311 61.363L59.8622 60.6815L66.4877 69.7335L65.5566 70.415L58.9311 61.363Z" fill="black"/>
<rect x="59.5289" y="64.1334" width="3.46154" height="8.629" rx="1" transform="rotate(-36.2017 59.5289 64.1334)" fill="black"/>
<path d="M36.15 84.9C33.2833 84.9 30.9 83.7333 29 81.4C27.1 79.1 25.9333 75.7833 25.5 71.45C25.5 71.35 25.5 71.1167 25.5 70.75C25.4667 70.3833 25.5333 70.0667 25.7 69.8C25.8333 69.5667 26.0667 69.4167 26.4 69.35C26.5667 69.3833 26.7333 69.6 26.9 70C27.0333 70.4 27.2 71.0833 27.4 72.05C27.8333 73.95 28.3167 75.6 28.85 77C29.3833 78.4 30.2 79.65 31.3 80.75C32.4 81.85 33.8167 82.4 35.55 82.4C36.95 82.4 37.9167 82.0167 38.45 81.25C39.0167 80.4833 39.3333 79.2667 39.4 77.6L39.45 75.5C39.45 71.1 39.05 66.5667 38.25 61.9C37.4833 57.2 36.3833 51.7833 34.95 45.65C34.9833 45.5167 35.0167 45.3167 35.05 45.05C35.0833 44.75 35.1833 44.55 35.35 44.45C35.55 44.35 35.8667 44.3 36.3 44.3C37.0333 44.7333 37.8333 46.8833 38.7 50.75C39.6 54.5833 40.35 59.0167 40.95 64.05C41.5833 69.1167 41.9 73.5167 41.9 77.25C41.9 79.95 41.3667 81.9 40.3 83.1C39.2333 84.3 37.85 84.9 36.15 84.9ZM36.45 39.65C35.7167 39.65 35.1667 39.3667 34.8 38.8C34.4667 38.2333 34.3 37.5333 34.3 36.7C34.3 36.3333 34.3167 36.0667 34.35 35.9C34.3167 35.3667 34.6167 35.1 35.25 35.1C35.7167 35.1 36.1833 35.2167 36.65 35.45C37.15 35.65 37.3 35.8 37.1 35.9C37.4333 36.7667 37.6 37.45 37.6 37.95C37.6 38.3833 37.5 38.7333 37.3 39C37.1 39.2333 36.8167 39.45 36.45 39.65Z" fill="black"/>
<path d="M53.3598 64.05C51.3931 64.05 49.6098 63.6167 48.0098 62.75C46.4431 61.85 45.2098 60.6167 44.3098 59.05C43.4431 57.45 43.0098 55.6333 43.0098 53.6C43.0098 50.2667 44.2264 47.7833 46.6598 46.15C49.1264 44.5167 52.1431 43.7 55.7098 43.7C57.3431 43.7 58.8598 44.1 60.2598 44.9C61.6931 45.7 62.8431 46.85 63.7098 48.35C64.5764 49.85 65.0098 51.5833 65.0098 53.55C65.0098 55.6833 64.4598 57.55 63.3598 59.15C62.2598 60.7167 60.8098 61.9333 59.0098 62.8C57.2431 63.6333 55.3598 64.05 53.3598 64.05ZM52.8098 61.2C55.9098 61.2 58.2598 60.5 59.8598 59.1C61.4598 57.7 62.2598 55.65 62.2598 52.95C62.2598 51.1167 61.6264 49.5333 60.3598 48.2C59.1264 46.8667 57.3931 46.2 55.1598 46.2C53.6598 46.2 52.1431 46.4833 50.6098 47.05C49.0764 47.6167 47.8098 48.4667 46.8098 49.6C45.8098 50.7333 45.3098 52.1 45.3098 53.7C45.3098 55.0333 45.6431 56.2833 46.3098 57.45C46.9764 58.5833 47.8764 59.5 49.0098 60.2C50.1764 60.8667 51.4431 61.2 52.8098 61.2Z" fill="black"/>
<path d="M80.9227 64.05C78.256 64.05 76.156 63.5333 74.6227 62.5C73.0893 61.4333 71.956 59.8333 71.2227 57.7C70.4893 55.5333 70.006 52.6333 69.7727 49L68.3227 40.55C68.1893 39.3167 68.006 38.1167 67.7727 36.95C67.5393 35.7833 67.4227 34.95 67.4227 34.45C67.4227 33.75 67.6227 33.2333 68.0227 32.9C68.4227 32.5333 69.1393 32.2833 70.1727 32.15C70.3727 33.8167 70.506 35.0667 70.5727 35.9C70.9393 39.1333 71.2393 41.6167 71.4727 43.35C71.7393 45.05 72.0727 46.8333 72.4727 48.7C75.0393 47.5667 77.506 47 79.8727 47C82.006 47 83.906 47.45 85.5727 48.35C87.2393 49.2167 88.5393 50.45 89.4727 52.05C90.406 53.6167 90.8727 55.3833 90.8727 57.35C90.8727 59.65 89.856 61.35 87.8227 62.45C85.8227 63.5167 83.5227 64.05 80.9227 64.05ZM88.0727 57.45C88.106 57.2167 88.1227 56.8833 88.1227 56.45C88.1227 54.0833 87.306 52.3167 85.6727 51.15C84.0727 49.9833 81.7893 49.4 78.8227 49.4C76.9893 49.4 75.556 49.7667 74.5227 50.5C73.5227 51.2 73.0227 52.1667 73.0227 53.4C73.0227 56.2333 73.7893 58.3 75.3227 59.6C76.8893 60.9 79.2727 61.55 82.4727 61.55C84.006 61.55 85.2893 61.2 86.3227 60.5C87.356 59.8 87.9393 58.7833 88.0727 57.45Z" fill="black"/>
</svg>
